<svg width="150" height="26" viewBox="0 0 150 26" fill="none" xmlns="http://www.w3.org/2000/svg">
<mask id="mask0_273_609" style="mask-type:luminance" maskUnits="userSpaceOnUse" x="0" y="3" width="5" height="22">
<path d="M0.5 3.07578V24.9573H4.4729V4.57122C4.4729 3.74404 3.80805 3.07578 2.98509 3.07578H0.5Z" fill="white"/>
</mask>
<g mask="url(#mask0_273_609)">
<path d="M4.4729 3.07578H0.5V24.9573H4.4729V3.07578Z" fill="url(#paint0_linear_273_609)"/>
</g>
<mask id="mask1_273_609" style="mask-type:luminance" maskUnits="userSpaceOnUse" x="8" y="8" width="15" height="17">
<path d="M12.062 11.5147H11.9647L11.8836 10.5205C11.8188 9.74218 11.1742 9.14726 10.3999 9.14726H8.28369C8.38099 10.5123 8.41342 12.0363 8.41342 13.8536V24.9574H12.4188V15.671C12.4188 15.2187 12.4512 14.7297 12.5809 14.3711C13.0025 13.1691 14.0971 12.0322 15.6822 12.0322C17.847 12.0322 18.6862 13.7518 18.6862 16.0255V24.9533H22.6591V15.5691C22.6591 10.5694 19.8173 8.78461 17.0727 8.78461C14.3282 8.78461 12.7431 10.276 12.0661 11.5106" fill="white"/>
</mask>
<g mask="url(#mask1_273_609)">
<path d="M22.6555 8.79195H8.28418V24.9606H22.6555V8.79195Z" fill="url(#paint1_linear_273_609)"/>
</g>
<mask id="mask2_273_609" style="mask-type:luminance" maskUnits="userSpaceOnUse" x="25" y="1" width="12" height="24">
<path d="M29.3678 3.07756C28.0098 4.37741 27.4625 6.42295 27.4625 8.46441V9.14489H25.3301V12.1317H27.4625V24.955H31.4354V12.1317H33.3691C34.1921 12.1317 34.861 11.4594 34.861 10.6322V9.14489H31.4029V8.33401C31.4029 6.38627 32.08 4.73191 34.0502 4.73191C34.7596 4.73191 35.311 4.86231 35.7285 5.0253L36.0204 1.94069C35.3758 1.71251 34.5326 1.54951 33.4705 1.54951C32.1124 1.54951 30.5313 1.97329 29.3678 3.07756Z" fill="white"/>
</mask>
<g mask="url(#mask2_273_609)">
<path d="M36.0204 1.54951H25.3301V24.959H36.0204V1.54951Z" fill="url(#paint2_linear_273_609)"/>
</g>
<mask id="mask3_273_609" style="mask-type:luminance" maskUnits="userSpaceOnUse" x="53" y="8" width="24" height="17">
<path d="M68.0486 9.62673C67.2986 10.0831 66.65 10.7391 66.0946 11.6234H66.0297C65.3446 9.85492 63.7189 8.67731 61.6352 8.67731C58.9677 8.67731 57.5326 10.1483 56.7502 11.3952H56.6529L56.588 10.4335C56.5353 9.6471 55.8826 9.03996 55.1002 9.03996H53.0408C53.1381 10.4132 53.1705 11.9534 53.1705 13.7871V24.9805H57.0785V15.5555C57.0785 15.0991 57.1434 14.6387 57.3056 14.2475C57.6623 13.1351 58.6717 11.9575 60.1717 11.9575C62.0284 11.9575 62.9081 13.5304 62.9081 15.7552V24.9845H66.8162V15.4292C66.8162 14.9728 66.9135 14.4798 67.0108 14.0886C67.4324 12.9436 68.4418 11.9616 69.8121 11.9616C71.7337 11.9616 72.6458 13.5344 72.6458 16.183V24.9886H76.5538V15.5963C76.5538 10.4906 73.8823 8.68953 71.2472 8.68953C69.9458 8.68953 68.9364 9.01551 68.0567 9.63895" fill="white"/>
</mask>
<g mask="url(#mask3_273_609)">
<path d="M76.5449 8.67798H53.0359V24.977H76.5449V8.67798Z" fill="url(#paint3_linear_273_609)"/>
</g>
<mask id="mask4_273_609" style="mask-type:luminance" maskUnits="userSpaceOnUse" x="79" y="8" width="14" height="18">
<path d="M82.9949 20.1641C82.9949 17.7396 85.6989 17.1202 88.5285 17.1854V19.3777C88.5285 19.6384 88.4961 19.9685 88.3988 20.2619C88.0421 21.4069 86.8705 22.4541 85.2732 22.4541C84.0043 22.4541 82.9949 21.7329 82.9949 20.1641ZM80.1611 10.0831L80.9436 12.6991C82.0179 12.0105 83.6476 11.5215 85.2083 11.5215C88.0096 11.5215 88.4313 13.2573 88.4313 14.3046V14.5654C82.5692 14.5328 79.022 16.562 79.022 20.5879C79.022 23.0083 80.8138 25.335 84.0043 25.335C86.0556 25.335 87.7178 24.4507 88.6948 23.2079H88.7921L89.0515 24.9764H92.6677C92.5055 23.9944 92.4406 22.5886 92.4406 21.1461V15.3844C92.4406 11.9167 90.9731 8.67731 85.8975 8.67731C83.3881 8.67731 81.3368 9.36594 80.1652 10.0831" fill="white"/>
</mask>
<g mask="url(#mask4_273_609)">
<path d="M92.6636 8.67731H79.022V25.335H92.6636V8.67731Z" fill="url(#paint4_linear_273_609)"/>
</g>
<mask id="mask5_273_609" style="mask-type:luminance" maskUnits="userSpaceOnUse" x="95" y="8" width="16" height="17">
<path d="M99.7022 11.4265H99.6049L99.5238 10.4119C99.459 9.63364 98.8144 9.03872 98.0401 9.03872H95.8955C95.9928 10.4119 96.0252 11.9522 96.0252 13.7858V24.9792H100.063V15.6195C100.063 15.1631 100.095 14.6701 100.225 14.3115C100.647 13.1013 101.758 11.9563 103.351 11.9563C105.532 11.9563 106.379 13.6921 106.379 15.9821V24.9833H110.384V15.5258C110.384 10.4853 107.518 8.68829 104.749 8.68829C101.981 8.68829 100.387 10.1919 99.7022 11.4388" fill="white"/>
</mask>
<g mask="url(#mask5_273_609)">
<path d="M110.381 8.67722H95.8916V24.9763H110.381V8.67722Z" fill="url(#paint5_linear_273_609)"/>
</g>
<mask id="mask6_273_609" style="mask-type:luminance" maskUnits="userSpaceOnUse" x="112" y="8" width="15" height="18">
<path d="M116.86 20.1641C116.86 17.7396 119.564 17.1202 122.398 17.1854V19.3777C122.398 19.6384 122.365 19.9685 122.268 20.2619C121.907 21.4069 120.736 22.4541 119.142 22.4541C117.873 22.4541 116.864 21.7329 116.864 20.1641M114.03 10.0831L114.813 12.6991C115.887 12.0105 117.517 11.5215 119.077 11.5215C121.879 11.5215 122.3 13.2573 122.3 14.3046V14.5654C116.438 14.5328 112.891 16.562 112.891 20.5879C112.891 23.0083 114.683 25.335 117.873 25.335C119.925 25.335 121.587 24.4507 122.564 23.2079H122.661L122.921 24.9764H126.537C126.375 23.9944 126.31 22.5886 126.31 21.1461V15.3844C126.31 11.9167 124.846 8.67731 119.767 8.67731C117.261 8.67731 115.206 9.36594 114.034 10.0831" fill="white"/>
</mask>
<g mask="url(#mask6_273_609)">
<path d="M126.528 8.67737H112.886V25.335H126.528V8.67737Z" fill="url(#paint6_linear_273_609)"/>
</g>
<mask id="mask7_273_609" style="mask-type:luminance" maskUnits="userSpaceOnUse" x="127" y="9" width="17" height="16">
<path d="M140.521 9.04002C139.868 9.04002 139.293 9.46787 139.098 10.0913L136.917 17.1244C136.491 18.5628 136.135 19.8096 135.843 21.1176H135.745C135.453 19.8096 135.125 18.5342 134.671 17.1244L132.429 10.0832C132.231 9.4638 131.659 9.04002 131.01 9.04002H127.767L133.662 24.9764H137.602L143.659 9.04002H140.521Z" fill="white"/>
</mask>
<g mask="url(#mask7_273_609)">
<path d="M143.659 9.04001H127.772V24.9764H143.659V9.04001Z" fill="url(#paint7_linear_273_609)"/>
</g>
<mask id="mask8_273_609" style="mask-type:luminance" maskUnits="userSpaceOnUse" x="0" y="0" width="150" height="26">
<path d="M149.5 0H0.5V25.3369H149.5V0Z" fill="white"/>
</mask>
<g mask="url(#mask8_273_609)">
<path d="M145.198 4.92941V5.87501H144.516V3.37924C144.717 3.34823 145.089 3.30173 145.554 3.30173C146.081 3.30173 146.314 3.37924 146.485 3.48775C146.655 3.59626 146.764 3.78228 146.764 4.03031C146.764 4.29384 146.531 4.51086 146.205 4.60387V4.63487C146.469 4.72788 146.609 4.92941 146.686 5.27044C146.764 5.64249 146.826 5.782 146.872 5.87501H146.112C146.035 5.782 145.988 5.56498 145.926 5.30145C145.88 5.03792 145.74 4.92941 145.461 4.92941H145.198ZM145.213 3.79778V4.44885H145.477C145.771 4.44885 145.988 4.34034 145.988 4.12332C145.988 3.90629 145.818 3.78228 145.508 3.78228C145.384 3.78228 145.291 3.79778 145.213 3.79778ZM145.57 1.96858C147.074 1.96858 148.252 3.13121 148.252 4.57287C148.252 6.04553 147.074 7.20816 145.57 7.20816C144.082 7.20816 142.873 6.04553 142.873 4.57287C142.873 3.13121 144.082 1.96858 145.57 1.96858ZM145.57 2.57315C144.454 2.57315 143.617 3.47225 143.617 4.58837C143.617 5.70449 144.454 6.60359 145.57 6.60359C146.686 6.60359 147.508 5.70449 147.508 4.58837C147.508 3.47225 146.686 2.57315 145.57 2.57315Z" fill="#231F20"/>
</g>
<mask id="mask9_273_609" style="mask-type:luminance" maskUnits="userSpaceOnUse" x="41" y="8" width="10" height="6">
<path d="M42.6622 8.88165L42.4595 8.90609C42.269 8.93869 41.9123 8.99574 41.6569 9.15465C40.2096 10.0552 43.9676 12.3982 47.9365 13.0664C50.9324 13.5717 50.2472 12.6141 50.0202 12.2963C50.0162 12.2922 49.6189 11.7381 49.4121 11.6769C48.6783 12.6019 43.3028 10.8131 42.8771 9.50509C42.6501 8.8083 44.5352 8.45379 47.1743 9.70067C47.0689 9.6477 46.927 9.57843 46.8176 9.52953C46.7365 9.49286 46.6149 9.43989 46.4527 9.37469C46.3757 9.34617 46.2622 9.30135 46.1122 9.24838C46.0392 9.22393 45.9297 9.19133 45.7838 9.14651C45.7108 9.12613 45.5973 9.09353 45.4473 9.05686C45.3298 9.02834 45.3217 9.02834 45.0906 8.97944C45.0014 8.95907 44.8676 8.93869 44.6852 8.91017C44.2473 8.85312 43.9028 8.83275 43.5744 8.83275C43.2744 8.83275 42.9906 8.85312 42.6622 8.88165Z" fill="white"/>
</mask>
<g mask="url(#mask9_273_609)">
<path d="M40.9982 5.63313L38.8713 13.1928L50.1335 16.3939L52.2604 8.83423L40.9982 5.63313Z" fill="url(#paint8_linear_273_609)"/>
</g>
<mask id="mask10_273_609" style="mask-type:luminance" maskUnits="userSpaceOnUse" x="37" y="10" width="15" height="8">
<path d="M38.8719 10.3717C38.6124 10.5754 38.28 10.8606 38.0367 11.0766C37.453 11.6552 37.7692 12.4987 38.9205 13.4563C40.6272 14.8784 43.988 16.3371 47.0893 17.0095C51.6338 17.9915 51.5487 16.8994 51.4879 16.1782C51.4433 15.62 51.3946 15.5262 51.3338 15.3999C51.0906 15.8645 49.846 15.9459 48.0055 15.624C42.9177 14.7276 37.307 11.5126 39.3786 10.0335C39.2246 10.1313 39.0259 10.2698 38.8759 10.3757" fill="white"/>
</mask>
<g mask="url(#mask10_273_609)">
<path d="M38.3589 6.25608L35.2227 17.4035L50.5653 21.7644L53.7015 10.617L38.3589 6.25608Z" fill="url(#paint9_linear_273_609)"/>
</g>
<mask id="mask11_273_609" style="mask-type:luminance" maskUnits="userSpaceOnUse" x="35" y="13" width="16" height="9">
<path d="M35.9131 14.6356L35.7713 15.2183C35.7672 15.2631 35.755 15.3283 35.751 15.3731C35.7064 16.8441 38.6617 18.7104 41.4266 19.8146C45.8292 21.579 49.5305 21.9417 50.2237 21.1715C50.3737 20.9311 50.5561 20.597 50.6899 20.3484C50.7831 20.1651 50.8845 19.9043 50.9656 19.7128C50.9007 19.8472 50.7994 19.9083 50.7467 19.9409C48.4116 21.3345 35.2402 16.8971 36.3023 13.5476C36.1726 13.8655 36.0185 14.3015 35.9091 14.6315" fill="white"/>
</mask>
<g mask="url(#mask11_273_609)">
<path d="M36.4085 9.40658L33.0571 21.3186L49.808 26.0798L53.1594 14.1677L36.4085 9.40658Z" fill="url(#paint10_linear_273_609)"/>
</g>
<mask id="mask12_273_609" style="mask-type:luminance" maskUnits="userSpaceOnUse" x="35" y="18" width="14" height="7">
<path d="M35.9118 18.9971C35.9929 19.2619 36.1185 19.6083 36.2118 19.865C37.209 22.1509 44.8265 24.8281 46.898 24.0661L47.0562 23.9927C47.5102 23.7645 47.5588 23.7319 48.1832 23.3163L48.2764 23.247C46.5454 24.3554 36.5969 21.3319 35.7334 18.2473C35.778 18.4755 35.855 18.777 35.9077 19.0011" fill="white"/>
</mask>
<g mask="url(#mask12_273_609)">
<path d="M36.6635 14.9443L34.0193 24.3429L47.349 28.1317L49.9933 18.733L36.6635 14.9443Z" fill="url(#paint11_linear_273_609)"/>
</g>
<mask id="mask13_273_609" style="mask-type:luminance" maskUnits="userSpaceOnUse" x="37" y="22" width="7" height="3">
<path d="M38.758 23.1838C38.9931 23.359 39.0296 23.3834 39.3904 23.6198C39.5647 23.7257 39.5769 23.7339 39.8891 23.905L39.9499 23.9376C40.7647 24.3532 41.4944 24.5366 41.7336 24.5977C41.8228 24.6181 41.9404 24.6425 42.0296 24.6629C42.1188 24.6792 42.2525 24.7037 42.435 24.7322C43.0796 24.8259 43.6471 24.8096 43.9512 24.8014C42.3417 24.8096 39.3783 23.8072 37.9756 22.5074C38.2715 22.7967 38.3283 22.8415 38.758 23.1878" fill="white"/>
</mask>
<g mask="url(#mask13_273_609)">
<path d="M38.4189 20.9281L37.3721 24.6492L43.5122 26.3944L44.5591 22.6734L38.4189 20.9281Z" fill="url(#paint12_linear_273_609)"/>
</g>
<defs>
<linearGradient id="paint0_linear_273_609" x1="0.548648" y1="13.9025" x2="50.4126" y2="13.9025" gradientUnits="userSpaceOnUse">
<stop stop-color="#E5681F"/>
<stop offset="0.52" stop-color="#DC3E20"/>
<stop offset="1" stop-color="#C52329"/>
</linearGradient>
<linearGradient id="paint1_linear_273_609" x1="0.549181" y1="16.7622" x2="50.4132" y2="16.7622" gradientUnits="userSpaceOnUse">
<stop stop-color="#E5681F"/>
<stop offset="0.52" stop-color="#DC3E20"/>
<stop offset="1" stop-color="#C52329"/>
</linearGradient>
<linearGradient id="paint2_linear_273_609" x1="0.548078" y1="13.1381" x2="50.4121" y2="13.1381" gradientUnits="userSpaceOnUse">
<stop stop-color="#E5681F"/>
<stop offset="0.52" stop-color="#DC3E20"/>
<stop offset="1" stop-color="#C52329"/>
</linearGradient>
<linearGradient id="paint3_linear_273_609" x1="137.982" y1="16.9939" x2="55.0453" y2="16.9939" gradientUnits="userSpaceOnUse">
<stop stop-color="#1F2760"/>
<stop offset="0.33" stop-color="#501E6B"/>
<stop offset="0.66" stop-color="#89123E"/>
<stop offset="1" stop-color="#C52329"/>
</linearGradient>
<linearGradient id="paint4_linear_273_609" x1="137.982" y1="17.1726" x2="55.0454" y2="17.1726" gradientUnits="userSpaceOnUse">
<stop stop-color="#1F2760"/>
<stop offset="0.33" stop-color="#501E6B"/>
<stop offset="0.66" stop-color="#89123E"/>
<stop offset="1" stop-color="#C52329"/>
</linearGradient>
<linearGradient id="paint5_linear_273_609" x1="137.983" y1="16.9932" x2="55.0463" y2="16.9932" gradientUnits="userSpaceOnUse">
<stop stop-color="#1F2760"/>
<stop offset="0.33" stop-color="#501E6B"/>
<stop offset="0.66" stop-color="#89123E"/>
<stop offset="1" stop-color="#C52329"/>
</linearGradient>
<linearGradient id="paint6_linear_273_609" x1="137.979" y1="17.1726" x2="55.0429" y2="17.1726" gradientUnits="userSpaceOnUse">
<stop stop-color="#1F2760"/>
<stop offset="0.33" stop-color="#501E6B"/>
<stop offset="0.66" stop-color="#89123E"/>
<stop offset="1" stop-color="#C52329"/>
</linearGradient>
<linearGradient id="paint7_linear_273_609" x1="137.982" y1="17.1726" x2="55.0461" y2="17.1726" gradientUnits="userSpaceOnUse">
<stop stop-color="#1F2760"/>
<stop offset="0.33" stop-color="#501E6B"/>
<stop offset="0.66" stop-color="#89123E"/>
<stop offset="1" stop-color="#C52329"/>
</linearGradient>
<linearGradient id="paint8_linear_273_609" x1="-9.94673" y1="-4.91743" x2="38.0719" y2="8.59213" gradientUnits="userSpaceOnUse">
<stop stop-color="#E5681F"/>
<stop offset="0.52" stop-color="#DC3E20"/>
<stop offset="1" stop-color="#C52329"/>
</linearGradient>
<linearGradient id="paint9_linear_273_609" x1="-10.8395" y1="-1.757" x2="37.179" y2="11.7526" gradientUnits="userSpaceOnUse">
<stop stop-color="#E5681F"/>
<stop offset="0.52" stop-color="#DC3E20"/>
<stop offset="1" stop-color="#C52329"/>
</linearGradient>
<linearGradient id="paint10_linear_273_609" x1="-11.867" y1="1.90144" x2="36.1516" y2="15.411" gradientUnits="userSpaceOnUse">
<stop stop-color="#E5681F"/>
<stop offset="0.52" stop-color="#DC3E20"/>
<stop offset="1" stop-color="#C52329"/>
</linearGradient>
<linearGradient id="paint11_linear_273_609" x1="-12.9254" y1="5.66838" x2="35.0932" y2="19.1779" gradientUnits="userSpaceOnUse">
<stop stop-color="#E5681F"/>
<stop offset="0.52" stop-color="#DC3E20"/>
<stop offset="1" stop-color="#C52329"/>
</linearGradient>
<linearGradient id="paint12_linear_273_609" x1="-13.5566" y1="7.91653" x2="34.4619" y2="21.4261" gradientUnits="userSpaceOnUse">
<stop stop-color="#E5681F"/>
<stop offset="0.52" stop-color="#DC3E20"/>
<stop offset="1" stop-color="#C52329"/>
</linearGradient>
</defs>
</svg>
